#!OML:ASF F:\VICON\USERDATA\INSTALL\rory3\rory3.ASF
:FULLY-SPECIFIED
:DEGREES
115
root 1.1868703201553898 17.861945790745725 48.94555854029868 -3.4977866222029026 0.2649458027972167 1.3765937071294831
lfemur -3.044678357580115 -4.302559264046039 -25.43871306077392
ltibia 23.96007537426018
lfoot -6.97234063123193 1.3234822410450362
ltoes -8.847062617826918
rfemur -17.57756732205124 1.0004405139470975 19.731624981507625
rtibia 57.32944290608516
rfoot -5.322362107978715 -4.7016736175567875
rtoes 7.310740951447566
lowerback 1.0 -0.20114946513631327 -1.5714418026435797
upperback 0.3455143732163326 -0.4185703052121914 0.7435065725981262
thorax -4.8424860954288516 -0.12701872847045548 1.6339694499547612
lowerneck -16.90373491941658 -3.151681647891598 -1.3700273759835697
upperneck 20.915077179651643 -4.165983535420104 1.3307602469916588
head 9.551592424972506 -1.9547010971555054 0.18859863667393612
lclavicle -1.0544981184655224e-15 -3.968203084217519e-16
lhumerus -28.759870946842852 -1.8465095842223838 83.8058846543981
lradius 26.588062330320597
lwrist 6.194653190092019
lhand -26.81253211515155 23.429862109654508
lfingers nan
lthumb -0.24003603033523174 53.38442985149192
rclavicle -1.1347246517327081e-15 -4.619830228956242e-16
rhumerus -28.13471558828303 -17.057862717672066 -79.83072772215064
rradius 28.91108074568571
rwrist 4.399126641528594
rhand -17.559137918812667 1.0
rfingers nan
rthumb 8.776794644338823 -8.331596091576587
116
root 1.2179458842326993 17.867581644890002 49.648752043331456 -3.354844808299677 0.028420192747575346 1.4324688531043113
lfemur -0.5817512567755143 -4.497154034877745 -25.718772367839996
ltibia 23.30222497519746
lfoot -6.237703997501001 0.6456950773281918
ltoes -9.210229811539294
rfemur -20.821814909958682 0.9884039056585108 19.693344412222952
rtibia 57.91673855361326
rfoot -6.0833757890052915 -3.017036931009165
rtoes 6.240081714792213
lowerback 1.0 -0.3969388845863523 -1.6844987206175177
upperback 0.34023631681349625 -0.6835304836928373 0.8455091683069117
thorax -4.85611347772098 -0.27520517195166116 1.9512885224868497
lowerneck -16.9733536621037 -3.08857469494495 -1.390935589497849
upperneck 20.963436584843773 -4.065273811702822 1.2883101948165534
head 9.580618561293733 -1.9141830178391523 0.19859308121887115
lclavicle -1.0584810223104488e-15 -3.979177233900759e-16
lhumerus -28.25811713487979 -2.058860278085013 83.68417728436427
lradius 26.661323328792804
lwrist 5.955091506265756
lhand -26.790261512735693 23.46575850820234
lfingers nan
lthumb -0.2354001904679614 53.387770959701704
rclavicle -1.1399408947435088e-15 -4.646706692232867e-16
rhumerus -28.337723485220117 -17.48249064833782 -80.05724970769593
rradius 28.742497170085855
rwrist 4.309071731405805
rhand -17.564505290055813 1.0
rfingers nan
rthumb 8.727685019804499 -8.44722364307251
117
root 1.244774893569128 17.876189707211662 50.14664515041327 -3.154953944599394 -0.3243913384426449 1.210073431782924
lfemur 1.6581652859497336 -4.538198642927378 -25.605531103022038
ltibia 22.825350317030214
lfoot -5.9793441412519925 -1.5324584628144156
ltoes -8.218296500857226
rfemur -23.678793033393383 1.1550495767269724 19.97855832646223
rtibia 56.988392817001426
rfoot -6.664590426255401 -1.9695521134455793
rtoes 5.133485073483664
lowerback 1.0 -0.599303664135692 -1.6300900924946427
upperback 0.3027837604185093 -0.9778624232695547 1.001597397223097
thorax -4.889058095398913 -0.43222216191701124 2.2557759290319788
lowerneck -17.02363983670739 -3.0190899649249063 -1.4167451710367231
upperneck 21.06622133289755 -3.952992699608192 1.2144265780597714
head 9.620346862063643 -1.8698803961050698 0.20181020354961976
lclavicle -1.0618841408231813e-15 -3.9922035631726527e-16
lhumerus -27.86755980683166 -2.2831428100983837 83.56056203640169
lradius 26.71301513805918
lwrist 5.774653682151239
lhand -26.779756164180174 23.504139925956885
lfingers nan
lthumb -0.18884752575855912 53.49569350748473
rclavicle -1.143927172651305e-15 -4.668307172844935e-16
rhumerus -28.536673841195814 -17.908976219228908 -80.19683690853151
rradius 28.590111722447183
rwrist 4.204287065031309
rhand -17.543334369740187 1.0
rfingers nan
rthumb 8.807323639421798 -8.25902618881208
118
root 1.274834290741678 17.89819782455425 50.76163131397962 -2.8200880845310676 -0.6572778763526439 0.7143804121450157
lfemur 3.677537629393523 -4.444252913593061 -25.101666763169323
ltibia 22.5920681962626
lfoot -4.985912743605121 -1.2929254208183978
ltoes -9.006909333269114
rfemur -25.450401840055527 1.4958532474231676 20.734771260587213
rtibia 54.43887954200598
rfoot -7.025117798714496 -1.371768772713306
rtoes 4.163731204228209
lowerback 1.0 -0.8131478755159475 -1.3576413404489744
upperback 0.25755727579546195 -1.2243823079986325 1.2317453599096795
thorax -4.904031848613014 -0.5709876845216356 2.541973883224652
lowerneck -17.046436930893897 -2.952376999604392 -1.4477954281591072
upperneck 21.208749267982732 -3.8431438326049743 1.1209086452095223
head 9.669010333862452 -1.8267303462350808 0.19869024271615332
lclavicle -1.0647886216710986e-15 -4.002341598511863e-16
lhumerus -27.498874939631175 -2.392373399278429 83.49756976661634
lradius 26.71124574559744
lwrist 5.669609053773545
lhand -26.76960634161942 23.538879959932697
lfingers nan
lthumb -0.1879113318688715 53.52263486557079
rclavicle -1.1477700730812194e-15 -4.689578183075816e-16
rhumerus -28.726658981473694 -18.278973677233036 -80.24806742843856
rradius 28.487973581783063
rwrist 4.10118418997534
rhand -17.5537732683294 1.0
rfingers nan
rthumb 8.761069829985724 -8.373908464135216
119
root 1.2938552914902335 17.910997236249784 50.53823883680177 -2.74308200608592 -1.1486603837573286 0.5628991894015036
lfemur 5.629828965642469 -4.271225286552548 -24.86816720005927
ltibia 22.538063938888058
lfoot -4.558588079530813 -2.5198190539697203
ltoes -8.205884935149458
rfemur -26.34751468265536 1.8883452266416616 21.09870049528336
rtibia 50.577302343435335
rfoot -7.252772999550636 -0.9521230403911094
rtoes 3.417422824939796
lowerback 1.0 -0.9339059170907987 -1.3857232950370615
upperback 0.22909018583910482 -1.4456448066835035 1.4139477596687549
thorax -4.881033847255029 -0.6965557596621911 2.7785248428429394
lowerneck -17.046476348066825 -2.8914145686374053 -1.4948113593822334
upperneck 21.37064696331053 -3.7405763671634515 1.021913517252742
head 9.722446528618894 -1.7868407761943048 0.1925035106781843
lclavicle -1.0666794729297086e-15 -4.0056711792203028e-16
lhumerus -27.345467601984275 -2.5487855739678293 83.43823677272792
lradius 26.657752472872517
lwrist 5.622213287727771
lhand -26.74798142591246 23.5834222843681
lfingers nan
lthumb -0.15200527888235604 53.59940617162766
rclavicle -1.1508800633750935e-15 -4.705947291539138e-16
rhumerus -28.915913609824322 -18.57249386989895 -80.23423237444656
rradius 28.44415424857478
rwrist 4.005921269038199
rhand -17.531016359823614 1.0
rfingers nan
rthumb 8.835255940205327 -8.200735200528586
